<svg xmlns="http://www.w3.org/2000/svg" viewBox="0 0 841.9 1190.5"><style>.st0{fill:none;stroke:#fff;stroke-width:9;stroke-linecap:round;stroke-linejoin:round;stroke-miterlimit:10}</style><g id="Layer_7"><path class="st0" d="M247.4 187.3l-.1-24.2m1 63.3c-1-3.6-.8-6-.8-10v-3.2m73.9-96.7v99.9c0 22.4-16.6 40.7-37 40.7-9.9 0-19-4.4-25.6-11.4M156.7 116.5v99.9c0 22.4-16.6 40.7-37 40.7-9.9 0-19-4.4-25.6-11.4m287.7 24.2V170m-60.4 31.1c0-13.8 10-25 22.2-25s22.2 11.3 22.2 25v32.3m75.6-32.3c0-13.8 10-25 22.2-25s22.2 11.3 22.2 25v32.3m-104 37.2c0 13.8-10 25-22.2 25s-22.2-11.3-22.2-25v-32.3m103.7-115.2v106.8c0 13.8-10 25-22.2 25h-10.5m-42.6-172v67.3c0 13.8-10 25-22.2 25s-22.2-11.3-22.2-25"/><path class="st0" d="M365.8 150.3V82.9c0-13.8 10-25 22.2-25s22.2 11.3 22.2 25m75.2 0v67.3c0 13.8-10 25-22.2 25s-22.2-11.3-22.2-25m44.4.1V82.9m-35.6 8.9c0 12.2-11.3 22.2-25 22.2m16.3-31.1c0-13.8 10-25 22.2-25s22.2 11.3 22.2 25m-284.3 59.4v67.3m0 0v-67.3m-44.3-.7c0-13.8 10-25 22.2-25s22.2 11.3 22.2 25m239.8 8.7v-28.2"/></g><g id="Layer_9"><path class="st0" d="M306.8 229.3v-25.5s-25.5-28.8-54.2-5.2m54.2-16.8v-43.2c0-12.1-9.9-22-22-22s-22 9.9-22 22m-17.3.3c0-12.1-9.9-22-22-22s-22 9.9-22 22"/><path class="st0" d="M262.8 194.4v24.9c0 12.1-9.9 22-22 22s-22-9.9-22-22m44-53.5v14.1m0-41.3v12.8m-9.9 46.9c-4.3 3.3-9.7 5.3-15.6 5.3-14.1 0-25.5-11.4-25.5-25.5 0-10.1 5.8-18.8 14.3-22.9m0 0s33.8-21.1 80.7 27.2m75 89.4v-13.3c0-13.8 9.8-25 21.8-25h21.2m-43-19.7v-13.3c0-13.8 9.8-25 21.8-25h21.2m-43-23.2V139c0-13.7 9.8-25 21.8-25h21.2"/></g></svg>