<svg width="402" height="248" viewBox="0 0 402 248" fill="none" xmlns="http://www.w3.org/2000/svg">
<path d="M158.3 134.4L158.2 110.2M232.3 63.6V163.5C232.3 185.9 215.7 204.2 195.3 204.2C185.4 204.2 176.3 199.8 169.7 192.8M67.6 63.6V163.5C67.6 185.9 51 204.2 30.6 204.2C20.7 204.2 11.6 199.8 5 192.8M292.7 217V117.1M232.3 148.2C232.3 134.4 242.3 123.2 254.5 123.2C266.7 123.2 276.7 134.5 276.7 148.2V180.5M352.3 148.2C352.3 134.4 362.3 123.2 374.5 123.2C386.7 123.2 396.7 134.5 396.7 148.2V180.5M292.7 217.7C292.7 231.5 282.7 242.7 270.5 242.7C258.3 242.7 248.3 231.4 248.3 217.7V185.4M352 70.2V177C352 190.8 342 202 329.8 202H319.3M276.7 30V97.3C276.7 111.1 266.7 122.3 254.5 122.3C242.3 122.3 232.3 111 232.3 97.3M159.2 173.5C158.2 169.9 158.4 167.5 158.4 163.5V160.3L159.2 173.5Z" stroke="white" stroke-width="9" stroke-miterlimit="10" stroke-linecap="round" stroke-linejoin="round"/>
<path d="M276.7 97.4V30C276.7 16.2 286.7 5 298.9 5C311.1 5 321.1 16.3 321.1 30M351.9 97.3C351.9 111 361.9 122.3 374.1 122.3C386.3 122.3 396.3 111.1 396.3 97.3V30V97.4M360.7 38.9C360.7 51.1 349.4 61.1 335.7 61.1M352 30C352 16.2 362 5 374.2 5C386.4 5 396.4 16.3 396.4 30M112.1 89.4V156.7M67.8 88.7C67.8 74.9 77.8 63.7 90 63.7C102.2 63.7 112.2 75 112.2 88.7M352 97.4V69.2" stroke="white" stroke-width="9" stroke-miterlimit="10" stroke-linecap="round" stroke-linejoin="round"/>
<path d="M217.7 176.4V150.9C217.7 150.9 192.2 122.1 163.5 145.7M217.7 128.9V85.7C217.7 73.6 207.8 63.7 195.7 63.7C183.6 63.7 173.7 73.6 173.7 85.7M156.4 86C156.4 73.9 146.5 64 134.4 64C122.3 64 112.4 73.9 112.4 86" stroke="white" stroke-width="9" stroke-miterlimit="10" stroke-linecap="round" stroke-linejoin="round"/>
<path d="M173.7 141.5V166.4C173.7 178.5 163.8 188.4 151.7 188.4C139.6 188.4 129.7 178.5 129.7 166.4M173.7 112.9V127M173.7 85.7V98.5M163.8 145.4C159.5 148.7 154.1 150.7 148.2 150.7C134.1 150.7 122.7 139.3 122.7 125.2C122.7 115.1 128.5 106.4 137 102.3C137 102.3 170.8 81.2 217.7 129.5M292.7 218.9V205.6C292.7 191.8 302.5 180.6 314.5 180.6H335.7M292.7 160.9V147.6C292.7 133.8 302.5 122.6 314.5 122.6H335.7M292.7 99.4V86.1C292.7 72.4 302.5 61.1 314.5 61.1H335.7" stroke="white" stroke-width="9" stroke-miterlimit="10" stroke-linecap="round" stroke-linejoin="round"/>
</svg>
