<svg id="hph" xmlns="http://www.w3.org/2000/svg" width="472" height="103" viewBox="0 0 472 103">
  <defs>
    <style>
      .cls-1 {
        font-size: 29px;
        font-family: "Knockout HTF49-Liteweight";
      }

      .cls-1, .cls-2 {
        fill: #fff;
      }

      .cls-2 {
        fill-rule: evenodd;
      }
    </style>
  </defs>
  <text id="Headphones" class="cls-1" transform="translate(145.182 81.765) scale(3.025 3.029)">Headphones</text>
  <path id="Forma_1" data-name="Forma 1" class="cls-2" d="M29.452,5.289c-0.236-.241-0.488-0.452-0.729-0.678-0.942-.858-1.536-1.335-1.536-1.335L27.193,3.34A17.282,17.282,0,0,0,17.017,0C6.711,0,0,7.637,0,17.167V41.2c0,9.529,6.817,17.167,17.017,17.167,4.208,0,4.458-2.214,6.806-3.433,0,0,3.4-2.042,3.4,3.433V103h10.21V82.4a6.837,6.837,0,0,0,6.807-6.866V37.767C44.243,22.178,34.384,9.947,29.452,5.289Zm37.387,57.4a18.669,18.669,0,0,1,1.227,5.982v6.866A6.837,6.837,0,0,0,74.873,82.4V103h10.21V82.4a6.837,6.837,0,0,0,6.807-6.866V68.667a19.478,19.478,0,0,1,1.242-5.987A35.144,35.144,0,0,1,66.839,62.685ZM79.976,0a29.182,29.182,0,1,0,28.91,29.18A29.046,29.046,0,0,0,79.976,0Z"/>
</svg>
